#N canvas 600 296 1440 852 12;
#X obj 345 771 dac~;
#X obj 275 226 s harm;
#X obj 325 226 s wfold;
#X obj 384 226 s envr;
#X obj 433 226 s envf;
#X obj 534 226 s lfor;
#X obj 584 226 s lfof;
#X obj 634 226 s lfos;
#X obj 393 130 vsl 25 80 0 1 0 0 empty empty empty 0 -9 0 10 -262144
-1 -1 0 1;
#X obj 429 130 vsl 25 80 0 1 0 0 empty empty empty 0 -9 0 10 -262144
-1 -1 0 1;
#X text 389 108 rise/fall;
#X obj 326 130 vsl 25 80 0 1 0 0 empty empty empty 0 -9 0 10 -262144
-1 -1 0 1;
#X obj 276 129 vsl 25 80 0 1 0 0 empty empty empty 0 -9 0 10 -262144
-1 -1 0 1;
#X text 308 110 wavefold;
#X text 239 109 harmonics;
#X obj 585 126 vsl 25 80 0 1 0 0 empty empty empty 0 -9 0 10 -262144
-1 -1 0 1;
#X obj 514 127 vsl 25 80 0 1 0 0 empty empty empty 0 -9 0 10 -262144
-1 -1 0 1;
#X obj 549 127 vsl 25 80 0 1 0 0 empty empty empty 0 -9 0 10 -262144
-1 -1 0 1;
#X text 573 105 spread;
#X text 507 105 rise/fall;
#X obj 476 127 vsl 25 80 0 1 0 0 empty empty empty 0 -9 0 10 -262144
-1 -1 0 1;
#X text 468 106 depth;
#X obj 483 226 s lfod;
#X text 392 80 amp env;
#X text 295 80 osc;
#X obj 346 513 pack 0 0 0;
#X obj 346 537 route 1 2 3 4 5 6 7 8;
#X text 544 82 amp lfo;
#X msg 55 440 34 127;
#X msg 78 466 34 0;
#X msg 143 464 41 0;
#X msg 120 438 41 127;
#X msg 196 440 43 127;
#X msg 203 465 43 0;
#X msg 260 437 48 127;
#X msg 267 462 48 0;
#X obj 347 484 poly 8 1;
#X text 608 186 _ sync;
#N canvas 0 179 1024 695 analogIn 0;
#X obj 167 2 adc~ 3 4 5 6 7 8 9 10;
#X obj 44 167 s clk;
#X obj 40 10 loadbang;
#X msg 44 31 1;
#X obj 44 55 s atten;
#X msg 44 84 125;
#X obj 44 108 s smooth;
#N canvas 0 50 450 300 signal-process 0;
#X obj 49 31 snapshot~;
#X obj 97 2 r clk;
#X obj 49 287 outlet;
#X obj 62 177 r atten;
#X obj 49 214 * 1;
#X obj 49 238 clip 0 1;
#X obj 49 92 t f b;
#X msg 49 120 \$1;
#X obj 81 124 f;
#X obj 99 74 r smooth;
#X floatatom 99 99 5 0 0 0 - - -;
#X obj 49 149 line;
#X obj 49 55 change;
#X obj 48 2 inlet~;
#X text 147 2 converts to data;
#X text 148 102 smooth time;
#X text 145 176 attenuation;
#X connect 0 0 12 0;
#X connect 1 0 0 0;
#X connect 3 0 4 1;
#X connect 4 0 5 0;
#X connect 5 0 2 0;
#X connect 6 0 7 0;
#X connect 6 1 8 0;
#X connect 7 0 11 0;
#X connect 8 0 11 1;
#X connect 9 0 10 0;
#X connect 10 0 8 1;
#X connect 11 0 4 0;
#X connect 12 0 6 0;
#X connect 13 0 0 0;
#X restore 168 48 pd signal-process;
#N canvas 0 50 450 300 signal-process 0;
#X obj 49 31 snapshot~;
#X obj 97 2 r clk;
#X obj 49 287 outlet;
#X obj 62 177 r atten;
#X obj 49 214 * 1;
#X obj 49 238 clip 0 1;
#X obj 49 92 t f b;
#X msg 49 120 \$1;
#X obj 81 124 f;
#X obj 99 74 r smooth;
#X floatatom 99 99 5 0 0 0 - - -;
#X obj 49 149 line;
#X obj 49 55 change;
#X obj 48 2 inlet~;
#X text 147 2 converts to data;
#X text 148 102 smooth time;
#X text 145 176 attenuation;
#X connect 0 0 12 0;
#X connect 1 0 0 0;
#X connect 3 0 4 1;
#X connect 4 0 5 0;
#X connect 5 0 2 0;
#X connect 6 0 7 0;
#X connect 6 1 8 0;
#X connect 7 0 11 0;
#X connect 8 0 11 1;
#X connect 9 0 10 0;
#X connect 10 0 8 1;
#X connect 11 0 4 0;
#X connect 12 0 6 0;
#X connect 13 0 0 0;
#X restore 188 68 pd signal-process;
#N canvas 0 50 450 300 signal-process 0;
#X obj 49 31 snapshot~;
#X obj 97 2 r clk;
#X obj 49 287 outlet;
#X obj 62 177 r atten;
#X obj 49 214 * 1;
#X obj 49 238 clip 0 1;
#X obj 49 92 t f b;
#X msg 49 120 \$1;
#X obj 81 124 f;
#X obj 99 74 r smooth;
#X floatatom 99 99 5 0 0 0 - - -;
#X obj 49 149 line;
#X obj 49 55 change;
#X obj 48 2 inlet~;
#X text 147 2 converts to data;
#X text 148 102 smooth time;
#X text 145 176 attenuation;
#X connect 0 0 12 0;
#X connect 1 0 0 0;
#X connect 3 0 4 1;
#X connect 4 0 5 0;
#X connect 5 0 2 0;
#X connect 6 0 7 0;
#X connect 6 1 8 0;
#X connect 7 0 11 0;
#X connect 8 0 11 1;
#X connect 9 0 10 0;
#X connect 10 0 8 1;
#X connect 11 0 4 0;
#X connect 12 0 6 0;
#X connect 13 0 0 0;
#X restore 208 88 pd signal-process;
#N canvas 0 50 450 300 signal-process 0;
#X obj 49 31 snapshot~;
#X obj 97 2 r clk;
#X obj 49 287 outlet;
#X obj 62 177 r atten;
#X obj 49 214 * 1;
#X obj 49 238 clip 0 1;
#X obj 49 92 t f b;
#X msg 49 120 \$1;
#X obj 81 124 f;
#X obj 99 74 r smooth;
#X floatatom 99 99 5 0 0 0 - - -;
#X obj 49 149 line;
#X obj 49 55 change;
#X obj 48 2 inlet~;
#X text 147 2 converts to data;
#X text 148 102 smooth time;
#X text 145 176 attenuation;
#X connect 0 0 12 0;
#X connect 1 0 0 0;
#X connect 3 0 4 1;
#X connect 4 0 5 0;
#X connect 5 0 2 0;
#X connect 6 0 7 0;
#X connect 6 1 8 0;
#X connect 7 0 11 0;
#X connect 8 0 11 1;
#X connect 9 0 10 0;
#X connect 10 0 8 1;
#X connect 11 0 4 0;
#X connect 12 0 6 0;
#X connect 13 0 0 0;
#X restore 228 108 pd signal-process;
#N canvas 0 50 450 300 signal-process 0;
#X obj 49 31 snapshot~;
#X obj 97 2 r clk;
#X obj 49 287 outlet;
#X obj 62 177 r atten;
#X obj 49 214 * 1;
#X obj 49 238 clip 0 1;
#X obj 49 92 t f b;
#X msg 49 120 \$1;
#X obj 81 124 f;
#X obj 99 74 r smooth;
#X floatatom 99 99 5 0 0 0 - - -;
#X obj 49 149 line;
#X obj 49 55 change;
#X obj 48 2 inlet~;
#X text 147 2 converts to data;
#X text 148 102 smooth time;
#X text 145 176 attenuation;
#X connect 0 0 12 0;
#X connect 1 0 0 0;
#X connect 3 0 4 1;
#X connect 4 0 5 0;
#X connect 5 0 2 0;
#X connect 6 0 7 0;
#X connect 6 1 8 0;
#X connect 7 0 11 0;
#X connect 8 0 11 1;
#X connect 9 0 10 0;
#X connect 10 0 8 1;
#X connect 11 0 4 0;
#X connect 12 0 6 0;
#X connect 13 0 0 0;
#X restore 248 128 pd signal-process;
#N canvas 0 50 450 300 signal-process 0;
#X obj 49 31 snapshot~;
#X obj 97 2 r clk;
#X obj 49 287 outlet;
#X obj 62 177 r atten;
#X obj 49 214 * 1;
#X obj 49 238 clip 0 1;
#X obj 49 92 t f b;
#X msg 49 120 \$1;
#X obj 81 124 f;
#X obj 99 74 r smooth;
#X floatatom 99 99 5 0 0 0 - - -;
#X obj 49 149 line;
#X obj 49 55 change;
#X obj 48 2 inlet~;
#X text 147 2 converts to data;
#X text 148 102 smooth time;
#X text 145 176 attenuation;
#X connect 0 0 12 0;
#X connect 1 0 0 0;
#X connect 3 0 4 1;
#X connect 4 0 5 0;
#X connect 5 0 2 0;
#X connect 6 0 7 0;
#X connect 6 1 8 0;
#X connect 7 0 11 0;
#X connect 8 0 11 1;
#X connect 9 0 10 0;
#X connect 10 0 8 1;
#X connect 11 0 4 0;
#X connect 12 0 6 0;
#X connect 13 0 0 0;
#X restore 268 148 pd signal-process;
#N canvas 0 50 450 300 signal-process 0;
#X obj 49 31 snapshot~;
#X obj 97 2 r clk;
#X obj 49 287 outlet;
#X obj 62 177 r atten;
#X obj 49 214 * 1;
#X obj 49 238 clip 0 1;
#X obj 49 92 t f b;
#X msg 49 120 \$1;
#X obj 81 124 f;
#X obj 99 74 r smooth;
#X floatatom 99 99 5 0 0 0 - - -;
#X obj 49 149 line;
#X obj 49 55 change;
#X obj 48 2 inlet~;
#X text 147 2 converts to data;
#X text 148 102 smooth time;
#X text 145 176 attenuation;
#X connect 0 0 12 0;
#X connect 1 0 0 0;
#X connect 3 0 4 1;
#X connect 4 0 5 0;
#X connect 5 0 2 0;
#X connect 6 0 7 0;
#X connect 6 1 8 0;
#X connect 7 0 11 0;
#X connect 8 0 11 1;
#X connect 9 0 10 0;
#X connect 10 0 8 1;
#X connect 11 0 4 0;
#X connect 12 0 6 0;
#X connect 13 0 0 0;
#X restore 288 168 pd signal-process;
#N canvas 0 50 450 300 signal-process 0;
#X obj 49 31 snapshot~;
#X obj 97 2 r clk;
#X obj 49 287 outlet;
#X obj 62 177 r atten;
#X obj 49 214 * 1;
#X obj 49 238 clip 0 1;
#X obj 49 92 t f b;
#X msg 49 120 \$1;
#X obj 81 124 f;
#X obj 99 74 r smooth;
#X floatatom 99 99 5 0 0 0 - - -;
#X obj 49 149 line;
#X obj 49 55 change;
#X obj 48 2 inlet~;
#X text 147 2 converts to data;
#X text 148 102 smooth time;
#X text 145 176 attenuation;
#X connect 0 0 12 0;
#X connect 1 0 0 0;
#X connect 3 0 4 1;
#X connect 4 0 5 0;
#X connect 5 0 2 0;
#X connect 6 0 7 0;
#X connect 6 1 8 0;
#X connect 7 0 11 0;
#X connect 8 0 11 1;
#X connect 9 0 10 0;
#X connect 10 0 8 1;
#X connect 11 0 4 0;
#X connect 12 0 6 0;
#X connect 13 0 0 0;
#X restore 308 188 pd signal-process;
#X text 33 187 sample rate;
#X obj 168 244 outlet;
#X obj 188 264 outlet;
#X obj 208 284 outlet;
#X obj 228 304 outlet;
#X obj 248 244 outlet;
#X obj 268 264 outlet;
#X obj 288 284 outlet;
#X obj 308 304 outlet;
#X obj 44 143 metro 100;
#X connect 0 0 7 0;
#X connect 0 1 8 0;
#X connect 0 2 9 0;
#X connect 0 3 10 0;
#X connect 0 4 11 0;
#X connect 0 5 12 0;
#X connect 0 6 13 0;
#X connect 0 7 14 0;
#X connect 2 0 3 0;
#X connect 2 0 5 0;
#X connect 2 0 24 0;
#X connect 3 0 4 0;
#X connect 5 0 6 0;
#X connect 7 0 16 0;
#X connect 8 0 17 0;
#X connect 9 0 18 0;
#X connect 10 0 19 0;
#X connect 11 0 20 0;
#X connect 12 0 21 0;
#X connect 13 0 22 0;
#X connect 14 0 23 0;
#X connect 24 0 1 0;
#X restore 407 43 pd analogIn;
#X text 375 43 bela;
#X text 376 11 external controls;
#X obj 347 711 *~ 0.25;
#X obj 345 564 addy;
#X obj 355 574 addy;
#X obj 365 584 addy;
#X obj 375 594 addy;
#X obj 385 604 addy;
#X obj 395 614 addy;
#X obj 405 624 addy;
#X obj 415 634 addy;
#X obj 425 644 addy;
#X obj 109 116 loadbang;
#X obj 257 699 adc~;
#X obj 243 737 *~ 0.5;
#X obj 292 737 *~ 0.5;
#X obj 116 49 loadbang;
#X msg 109 140 \; pd dsp 1 \; harm 0.5 \; wfold 0.75 envr 0 \; envf
1 \; lfod 0.25 \; lfor 0.1 \; lfof 0.2 \; lfos 0.2 \;;
#X obj 346 442 notein;
#X obj 173 374 loadbang;
#X obj 173 398 delay 1000;
#X obj 279 397 delay 2000;
#X connect 8 0 3 0;
#X connect 9 0 4 0;
#X connect 11 0 2 0;
#X connect 12 0 1 0;
#X connect 15 0 7 0;
#X connect 16 0 5 0;
#X connect 17 0 6 0;
#X connect 20 0 22 0;
#X connect 25 0 26 0;
#X connect 26 0 42 0;
#X connect 26 1 43 0;
#X connect 26 2 44 0;
#X connect 26 3 45 0;
#X connect 26 4 46 0;
#X connect 26 5 47 0;
#X connect 26 6 48 0;
#X connect 26 7 49 0;
#X connect 26 8 50 0;
#X connect 28 0 36 0;
#X connect 29 0 36 0;
#X connect 30 0 36 0;
#X connect 31 0 36 0;
#X connect 32 0 36 0;
#X connect 33 0 36 0;
#X connect 34 0 36 0;
#X connect 35 0 36 0;
#X connect 36 0 25 0;
#X connect 36 1 25 1;
#X connect 36 2 25 2;
#X connect 38 0 12 0;
#X connect 38 1 11 0;
#X connect 38 2 8 0;
#X connect 38 3 9 0;
#X connect 38 4 20 0;
#X connect 38 5 16 0;
#X connect 38 6 17 0;
#X connect 38 7 15 0;
#X connect 41 0 0 0;
#X connect 41 0 0 1;
#X connect 42 0 41 0;
#X connect 43 0 41 0;
#X connect 44 0 41 0;
#X connect 45 0 41 0;
#X connect 46 0 41 0;
#X connect 47 0 41 0;
#X connect 48 0 41 0;
#X connect 49 0 41 0;
#X connect 50 0 41 0;
#X connect 51 0 56 0;
#X connect 52 0 53 0;
#X connect 52 0 54 0;
#X connect 52 1 54 0;
#X connect 52 1 53 0;
#X connect 53 0 0 0;
#X connect 54 0 0 1;
#X connect 57 0 36 0;
#X connect 57 1 36 1;
#X connect 58 0 59 0;
#X connect 58 0 60 0;
#X connect 59 0 28 0;
#X connect 60 0 29 0;
