#N canvas 518 63 748 566 12;
#X obj 57 317 dac~;
#X obj 275 226 s harm;
#X obj 325 226 s wfold;
#X obj 555 227 s envr;
#X obj 604 227 s envf;
#X obj 537 133 vsl 25 80 0 1 0 0 empty empty empty 0 -9 0 10 -262144
-1 -1 0 1;
#X obj 573 133 vsl 25 80 0 1 0 0 empty empty empty 0 -9 0 10 -262144
-1 -1 0 1;
#X text 533 111 rise/fall;
#X obj 326 130 vsl 25 80 0 1 0 0 empty empty empty 0 -9 0 10 -262144
-1 -1 0 1;
#X obj 276 129 vsl 25 80 0 1 0 0 empty empty empty 0 -9 0 10 -262144
-1 -1 0 1;
#X text 308 110 wavefold;
#X text 255 96 harmonics;
#X obj 428 128 vsl 25 80 0 1 0 0 empty empty empty 0 -9 0 10 -262144
-1 -1 0 1;
#X obj 469 130 vsl 25 80 0 1 0 0 empty empty empty 0 -9 0 10 -262144
-1 -1 0 1;
#X obj 393 126 vsl 25 80 0 1 0 0 empty empty empty 0 -9 0 10 -262144
-1 -1 0 1;
#X obj 628 128 vsl 25 80 0 1 0 0 empty empty empty 0 -9 0 10 -262144
-1 -1 0 1;
#X text 536 83 amp env;
#X obj 55 63 pack 0 0 0;
#X obj 55 87 route 1 2 3 4 5 6 7 8;
#N canvas 0 179 1024 695 analogIn 0;
#X obj 167 2 adc~ 3 4 5 6 7 8 9 10;
#X obj 44 167 s clk;
#X obj 40 10 loadbang;
#X msg 44 31 1;
#X obj 44 55 s atten;
#X msg 44 84 125;
#X obj 44 108 s smooth;
#N canvas 0 50 450 300 signal-process 0;
#X obj 49 31 snapshot~;
#X obj 97 2 r clk;
#X obj 49 287 outlet;
#X obj 62 177 r atten;
#X obj 49 214 * 1;
#X obj 49 238 clip 0 1;
#X obj 49 92 t f b;
#X msg 49 120 \$1;
#X obj 81 124 f;
#X obj 99 74 r smooth;
#X floatatom 99 99 5 0 0 0 - - -;
#X obj 49 149 line;
#X obj 49 55 change;
#X obj 48 2 inlet~;
#X text 147 2 converts to data;
#X text 148 102 smooth time;
#X text 145 176 attenuation;
#X connect 0 0 12 0;
#X connect 1 0 0 0;
#X connect 3 0 4 1;
#X connect 4 0 5 0;
#X connect 5 0 2 0;
#X connect 6 0 7 0;
#X connect 6 1 8 0;
#X connect 7 0 11 0;
#X connect 8 0 11 1;
#X connect 9 0 10 0;
#X connect 10 0 8 1;
#X connect 11 0 4 0;
#X connect 12 0 6 0;
#X connect 13 0 0 0;
#X restore 168 48 pd signal-process;
#N canvas 0 50 450 300 signal-process 0;
#X obj 49 31 snapshot~;
#X obj 97 2 r clk;
#X obj 49 287 outlet;
#X obj 62 177 r atten;
#X obj 49 214 * 1;
#X obj 49 238 clip 0 1;
#X obj 49 92 t f b;
#X msg 49 120 \$1;
#X obj 81 124 f;
#X obj 99 74 r smooth;
#X floatatom 99 99 5 0 0 0 - - -;
#X obj 49 149 line;
#X obj 49 55 change;
#X obj 48 2 inlet~;
#X text 147 2 converts to data;
#X text 148 102 smooth time;
#X text 145 176 attenuation;
#X connect 0 0 12 0;
#X connect 1 0 0 0;
#X connect 3 0 4 1;
#X connect 4 0 5 0;
#X connect 5 0 2 0;
#X connect 6 0 7 0;
#X connect 6 1 8 0;
#X connect 7 0 11 0;
#X connect 8 0 11 1;
#X connect 9 0 10 0;
#X connect 10 0 8 1;
#X connect 11 0 4 0;
#X connect 12 0 6 0;
#X connect 13 0 0 0;
#X restore 188 68 pd signal-process;
#N canvas 0 50 450 300 signal-process 0;
#X obj 49 31 snapshot~;
#X obj 97 2 r clk;
#X obj 49 287 outlet;
#X obj 62 177 r atten;
#X obj 49 214 * 1;
#X obj 49 238 clip 0 1;
#X obj 49 92 t f b;
#X msg 49 120 \$1;
#X obj 81 124 f;
#X obj 99 74 r smooth;
#X floatatom 99 99 5 0 0 0 - - -;
#X obj 49 149 line;
#X obj 49 55 change;
#X obj 48 2 inlet~;
#X text 147 2 converts to data;
#X text 148 102 smooth time;
#X text 145 176 attenuation;
#X connect 0 0 12 0;
#X connect 1 0 0 0;
#X connect 3 0 4 1;
#X connect 4 0 5 0;
#X connect 5 0 2 0;
#X connect 6 0 7 0;
#X connect 6 1 8 0;
#X connect 7 0 11 0;
#X connect 8 0 11 1;
#X connect 9 0 10 0;
#X connect 10 0 8 1;
#X connect 11 0 4 0;
#X connect 12 0 6 0;
#X connect 13 0 0 0;
#X restore 208 88 pd signal-process;
#N canvas 0 50 450 300 signal-process 0;
#X obj 49 31 snapshot~;
#X obj 97 2 r clk;
#X obj 49 287 outlet;
#X obj 62 177 r atten;
#X obj 49 214 * 1;
#X obj 49 238 clip 0 1;
#X obj 49 92 t f b;
#X msg 49 120 \$1;
#X obj 81 124 f;
#X obj 99 74 r smooth;
#X floatatom 99 99 5 0 0 0 - - -;
#X obj 49 149 line;
#X obj 49 55 change;
#X obj 48 2 inlet~;
#X text 147 2 converts to data;
#X text 148 102 smooth time;
#X text 145 176 attenuation;
#X connect 0 0 12 0;
#X connect 1 0 0 0;
#X connect 3 0 4 1;
#X connect 4 0 5 0;
#X connect 5 0 2 0;
#X connect 6 0 7 0;
#X connect 6 1 8 0;
#X connect 7 0 11 0;
#X connect 8 0 11 1;
#X connect 9 0 10 0;
#X connect 10 0 8 1;
#X connect 11 0 4 0;
#X connect 12 0 6 0;
#X connect 13 0 0 0;
#X restore 228 108 pd signal-process;
#N canvas 0 50 450 300 signal-process 0;
#X obj 49 31 snapshot~;
#X obj 97 2 r clk;
#X obj 49 287 outlet;
#X obj 62 177 r atten;
#X obj 49 214 * 1;
#X obj 49 238 clip 0 1;
#X obj 49 92 t f b;
#X msg 49 120 \$1;
#X obj 81 124 f;
#X obj 99 74 r smooth;
#X floatatom 99 99 5 0 0 0 - - -;
#X obj 49 149 line;
#X obj 49 55 change;
#X obj 48 2 inlet~;
#X text 147 2 converts to data;
#X text 148 102 smooth time;
#X text 145 176 attenuation;
#X connect 0 0 12 0;
#X connect 1 0 0 0;
#X connect 3 0 4 1;
#X connect 4 0 5 0;
#X connect 5 0 2 0;
#X connect 6 0 7 0;
#X connect 6 1 8 0;
#X connect 7 0 11 0;
#X connect 8 0 11 1;
#X connect 9 0 10 0;
#X connect 10 0 8 1;
#X connect 11 0 4 0;
#X connect 12 0 6 0;
#X connect 13 0 0 0;
#X restore 248 128 pd signal-process;
#N canvas 0 50 450 300 signal-process 0;
#X obj 49 31 snapshot~;
#X obj 97 2 r clk;
#X obj 49 287 outlet;
#X obj 62 177 r atten;
#X obj 49 214 * 1;
#X obj 49 238 clip 0 1;
#X obj 49 92 t f b;
#X msg 49 120 \$1;
#X obj 81 124 f;
#X obj 99 74 r smooth;
#X floatatom 99 99 5 0 0 0 - - -;
#X obj 49 149 line;
#X obj 49 55 change;
#X obj 48 2 inlet~;
#X text 147 2 converts to data;
#X text 148 102 smooth time;
#X text 145 176 attenuation;
#X connect 0 0 12 0;
#X connect 1 0 0 0;
#X connect 3 0 4 1;
#X connect 4 0 5 0;
#X connect 5 0 2 0;
#X connect 6 0 7 0;
#X connect 6 1 8 0;
#X connect 7 0 11 0;
#X connect 8 0 11 1;
#X connect 9 0 10 0;
#X connect 10 0 8 1;
#X connect 11 0 4 0;
#X connect 12 0 6 0;
#X connect 13 0 0 0;
#X restore 268 148 pd signal-process;
#N canvas 0 50 450 300 signal-process 0;
#X obj 49 31 snapshot~;
#X obj 97 2 r clk;
#X obj 49 287 outlet;
#X obj 62 177 r atten;
#X obj 49 214 * 1;
#X obj 49 238 clip 0 1;
#X obj 49 92 t f b;
#X msg 49 120 \$1;
#X obj 81 124 f;
#X obj 99 74 r smooth;
#X floatatom 99 99 5 0 0 0 - - -;
#X obj 49 149 line;
#X obj 49 55 change;
#X obj 48 2 inlet~;
#X text 147 2 converts to data;
#X text 148 102 smooth time;
#X text 145 176 attenuation;
#X connect 0 0 12 0;
#X connect 1 0 0 0;
#X connect 3 0 4 1;
#X connect 4 0 5 0;
#X connect 5 0 2 0;
#X connect 6 0 7 0;
#X connect 6 1 8 0;
#X connect 7 0 11 0;
#X connect 8 0 11 1;
#X connect 9 0 10 0;
#X connect 10 0 8 1;
#X connect 11 0 4 0;
#X connect 12 0 6 0;
#X connect 13 0 0 0;
#X restore 288 168 pd signal-process;
#N canvas 0 50 450 300 signal-process 0;
#X obj 49 31 snapshot~;
#X obj 97 2 r clk;
#X obj 49 287 outlet;
#X obj 62 177 r atten;
#X obj 49 214 * 1;
#X obj 49 238 clip 0 1;
#X obj 49 92 t f b;
#X msg 49 120 \$1;
#X obj 81 124 f;
#X obj 99 74 r smooth;
#X floatatom 99 99 5 0 0 0 - - -;
#X obj 49 149 line;
#X obj 49 55 change;
#X obj 48 2 inlet~;
#X text 147 2 converts to data;
#X text 148 102 smooth time;
#X text 145 176 attenuation;
#X connect 0 0 12 0;
#X connect 1 0 0 0;
#X connect 3 0 4 1;
#X connect 4 0 5 0;
#X connect 5 0 2 0;
#X connect 6 0 7 0;
#X connect 6 1 8 0;
#X connect 7 0 11 0;
#X connect 8 0 11 1;
#X connect 9 0 10 0;
#X connect 10 0 8 1;
#X connect 11 0 4 0;
#X connect 12 0 6 0;
#X connect 13 0 0 0;
#X restore 308 188 pd signal-process;
#X text 33 187 sample rate;
#X obj 168 244 outlet;
#X obj 188 264 outlet;
#X obj 208 284 outlet;
#X obj 228 304 outlet;
#X obj 248 244 outlet;
#X obj 268 264 outlet;
#X obj 288 284 outlet;
#X obj 308 304 outlet;
#X obj 44 143 metro 100;
#X connect 0 0 7 0;
#X connect 0 1 8 0;
#X connect 0 2 9 0;
#X connect 0 3 10 0;
#X connect 0 4 11 0;
#X connect 0 5 12 0;
#X connect 0 6 13 0;
#X connect 0 7 14 0;
#X connect 2 0 3 0;
#X connect 2 0 5 0;
#X connect 2 0 24 0;
#X connect 3 0 4 0;
#X connect 5 0 6 0;
#X connect 7 0 16 0;
#X connect 8 0 17 0;
#X connect 9 0 18 0;
#X connect 10 0 19 0;
#X connect 11 0 20 0;
#X connect 12 0 21 0;
#X connect 13 0 22 0;
#X connect 14 0 23 0;
#X connect 24 0 1 0;
#X restore 407 43 pd analogIn;
#X text 375 43 bela;
#X text 376 11 external controls;
#X obj 57 259 *~ 0.25;
#X obj 55 112 addy;
#X obj 65 122 addy;
#X obj 75 132 addy;
#X obj 85 142 addy;
#X obj 95 152 addy;
#X obj 105 162 addy;
#X obj 115 172 addy;
#X obj 125 182 addy;
#X obj 135 192 addy;
#X obj 53 358 loadbang;
#X obj 114 258 adc~;
#X obj 114 288 *~ 0.5;
#X obj 162 288 *~ 0.5;
#X obj 55 37 poly 8 1;
#X obj 495 226 s dtun;
#X obj 381 226 s harm2;
#X obj 431 226 s wfold2;
#X obj 662 225 s vol;
#X text 302 66 osc 1 / osc 2;
#X text 451 93 detune;
#X text 415 109 wavefold;
#X text 370 93 harmonics;
#X text 619 106 volume;
#X obj 134 223 r vol;
#X msg 53 382 \; pd dsp 1 \; harm 0.5 \; wfold 0.75 \; dtun 0 \; harm2
0.25 \; wfold2 0.5 \; envr 0 \; envf 1 \; vol 0.5 \;;
#X obj 151 377 metro 50;
#X obj 151 401 s clock;
#X obj 55 14 notein 2;
#X connect 5 0 3 0;
#X connect 6 0 4 0;
#X connect 8 0 2 0;
#X connect 9 0 1 0;
#X connect 12 0 39 0;
#X connect 13 0 37 0;
#X connect 14 0 38 0;
#X connect 15 0 40 0;
#X connect 17 0 18 0;
#X connect 18 0 23 0;
#X connect 18 1 24 0;
#X connect 18 2 25 0;
#X connect 18 3 26 0;
#X connect 18 4 27 0;
#X connect 18 5 28 0;
#X connect 18 6 29 0;
#X connect 18 7 30 0;
#X connect 18 8 31 0;
#X connect 19 0 9 0;
#X connect 19 1 8 0;
#X connect 19 2 14 0;
#X connect 19 3 12 0;
#X connect 19 4 13 0;
#X connect 19 5 5 0;
#X connect 19 6 6 0;
#X connect 19 7 15 0;
#X connect 22 0 0 0;
#X connect 22 0 0 1;
#X connect 23 0 22 0;
#X connect 24 0 22 0;
#X connect 25 0 22 0;
#X connect 26 0 22 0;
#X connect 27 0 22 0;
#X connect 28 0 22 0;
#X connect 29 0 22 0;
#X connect 30 0 22 0;
#X connect 31 0 22 0;
#X connect 32 0 47 0;
#X connect 32 0 48 0;
#X connect 33 0 34 0;
#X connect 33 0 35 0;
#X connect 33 1 35 0;
#X connect 33 1 34 0;
#X connect 34 0 0 0;
#X connect 35 0 0 1;
#X connect 36 0 17 0;
#X connect 36 1 17 1;
#X connect 36 2 17 2;
#X connect 46 0 22 1;
#X connect 48 0 49 0;
#X connect 50 0 36 0;
#X connect 50 1 36 1;
