#N canvas 0 22 719 687 12;
#X obj 110 319 *~;
#X obj 245 274 tgl 15 0 empty empty empty 17 7 0 10 -262144 -1 -1 0
1;
#X text 192 272 trigger;
#N canvas 388 90 1440 852 ramp 1;
#X msg 154 537 1 5;
#X msg 154 513 set 1 \$1;
#X msg 230 539 0 6005;
#X msg 230 515 set 0 \$1;
#X obj 154 575 line~;
#X obj 153 607 *~;
#X obj 153 631 *~;
#X text 303 378 ramp;
#X obj 213 239 vsl 25 80 0 1 0 0 empty empty empty 0 -9 0 10 -262144
-1 -1 0 1;
#X obj 264 239 vsl 25 80 0 1 0 0 empty empty empty 0 -9 0 10 -262144
-1 -1 7900 1;
#X text 217 216 rise/fall;
#X obj 264 381 + 5;
#X obj 213 381 + 5;
#X obj 215 194 inlet;
#X obj 266 194 inlet;
#X obj 118 396 tgl 15 0 empty empty empty 17 7 0 10 -262144 -1 -1 0
1;
#X obj 153 665 outlet~;
#X obj 119 356 inlet;
#X obj 118 423 sel 1;
#X obj 264 357 * 6000;
#X obj 213 357 * 6000;
#X obj 154 483 i;
#X obj 240 485 i;
#X obj 117 458 t b b;
#X obj 201 457 t b b;
#X connect 0 0 4 0;
#X connect 1 0 0 0;
#X connect 2 0 4 0;
#X connect 3 0 2 0;
#X connect 4 0 5 0;
#X connect 4 0 5 1;
#X connect 5 0 6 0;
#X connect 5 0 6 1;
#X connect 6 0 16 0;
#X connect 8 0 20 0;
#X connect 9 0 19 0;
#X connect 11 0 22 1;
#X connect 12 0 21 1;
#X connect 13 0 8 0;
#X connect 14 0 9 0;
#X connect 15 0 18 0;
#X connect 17 0 15 0;
#X connect 18 0 23 0;
#X connect 18 1 24 0;
#X connect 19 0 11 0;
#X connect 20 0 12 0;
#X connect 21 0 1 0;
#X connect 22 0 3 0;
#X connect 23 0 0 0;
#X connect 23 1 21 0;
#X connect 24 0 2 0;
#X connect 24 1 22 0;
#X restore 245 296 pd ramp;
#N canvas 0 22 1440 852 oscillator 0;
#X obj 360 483 osc~ 5000;
#X obj 361 358 mtof;
#X obj 431 484 osc~ 5000;
#X obj 361 533 *~;
#X obj 462 359 t b f;
#X obj 431 386 expr $f1*($f2+1) \;;
#X obj 538 552 cos~;
#X obj 362 646 *~;
#X obj 540 599 *~;
#X obj 583 599 * -1;
#X obj 583 623 + 1;
#X obj 462 304 i;
#X obj 462 278 * 16;
#X text 541 -5 wavefold;
#X text 449 -4 harmonics;
#X obj 360 14 inlet;
#X obj 461 11 inlet;
#X obj 555 9 inlet;
#X obj 657 786 outlet~;
#X obj 657 737 hip~ 10;
#X text 279 -3 pitch bend;
#X obj 361 233 +;
#X obj 297 218 bng 15 250 50 0 empty empty empty 17 7 0 10 -262144
-1 -1;
#X text 809 38 detune;
#X obj 788 475 osc~ 5000;
#X obj 788 390 mtof;
#X obj 859 476 osc~ 5000;
#X obj 789 525 *~;
#X obj 890 391 t b f;
#X obj 859 418 expr $f1*($f2+1) \;;
#X obj 966 544 cos~;
#X obj 790 638 *~;
#X obj 968 591 *~;
#X obj 1011 591 * -1;
#X obj 1011 615 + 1;
#X obj 890 336 i;
#X obj 890 310 * 16;
#X text 1001 37 wavefold;
#X text 896 39 harmonics;
#X obj 789 331 bng 15 250 50 0 empty empty empty 17 7 0 10 -262144
-1 -1;
#X obj 807 15 inlet;
#X obj 890 15 inlet;
#X obj 991 14 inlet;
#X obj 788 360 -;
#X obj 657 761 *~ 0.5;
#X obj 297 20 bendin;
#X obj 297 47 - 8192;
#X obj 297 149 / 8191;
#X obj 699 70 / 127;
#X obj 807 253 * 12;
#X obj 297 173 * 2;
#X obj 740 14 ctlin 1;
#X obj 741 70 / 127;
#X obj 741 218 * 0.5;
#X obj 681 158 osc~;
#X obj 683 186 snapshot~;
#X obj 683 237 *;
#X obj 694 310 line;
#X msg 694 286 \$1 100;
#X obj 361 327 +;
#X obj 610 341 +;
#X obj 681 129 -;
#X obj 696 262 * 1.1;
#X obj 681 104 * 8;
#X obj 683 210 / 2;
#X obj 648 308 line;
#X msg 648 284 \$1 50;
#X obj 610 166 r clock;
#X text 733 -7 modwheel;
#X text 364 -2 note;
#X connect 0 0 3 0;
#X connect 1 0 5 0;
#X connect 1 0 0 0;
#X connect 2 0 3 1;
#X connect 3 0 6 0;
#X connect 3 0 7 0;
#X connect 4 0 5 0;
#X connect 4 1 5 1;
#X connect 5 0 2 0;
#X connect 6 0 8 0;
#X connect 7 0 19 0;
#X connect 8 0 19 0;
#X connect 9 0 10 0;
#X connect 10 0 7 1;
#X connect 11 0 4 0;
#X connect 12 0 11 0;
#X connect 15 0 48 0;
#X connect 15 0 21 0;
#X connect 16 0 12 0;
#X connect 17 0 9 0;
#X connect 17 0 8 1;
#X connect 19 0 44 0;
#X connect 21 0 59 0;
#X connect 21 0 60 0;
#X connect 22 0 21 0;
#X connect 24 0 27 0;
#X connect 25 0 29 0;
#X connect 25 0 24 0;
#X connect 26 0 27 1;
#X connect 27 0 30 0;
#X connect 27 0 31 0;
#X connect 28 0 29 0;
#X connect 28 1 29 1;
#X connect 29 0 26 0;
#X connect 30 0 32 0;
#X connect 31 0 19 0;
#X connect 32 0 19 0;
#X connect 33 0 34 0;
#X connect 34 0 31 1;
#X connect 35 0 28 0;
#X connect 36 0 35 0;
#X connect 39 0 43 0;
#X connect 40 0 49 0;
#X connect 41 0 36 0;
#X connect 42 0 33 0;
#X connect 42 0 32 1;
#X connect 43 0 25 0;
#X connect 44 0 18 0;
#X connect 45 0 46 0;
#X connect 46 0 47 0;
#X connect 47 0 50 0;
#X connect 48 0 61 1;
#X connect 49 0 39 0;
#X connect 49 0 43 1;
#X connect 50 0 22 0;
#X connect 50 0 21 1;
#X connect 51 0 52 0;
#X connect 52 0 53 0;
#X connect 52 0 63 0;
#X connect 53 0 56 1;
#X connect 54 0 55 0;
#X connect 55 0 64 0;
#X connect 56 0 62 0;
#X connect 56 0 66 0;
#X connect 57 0 60 1;
#X connect 58 0 57 0;
#X connect 59 0 1 0;
#X connect 60 0 43 0;
#X connect 61 0 54 0;
#X connect 62 0 58 0;
#X connect 63 0 61 0;
#X connect 64 0 56 0;
#X connect 65 0 59 1;
#X connect 66 0 65 0;
#X connect 67 0 55 0;
#X connect 67 0 59 0;
#X connect 67 0 60 0;
#X restore 110 217 pd oscillator;
#X obj 153 81 r harm;
#X obj 203 81 r wfold;
#X obj 412 81 r envr;
#X obj 461 81 r envf;
#X obj 108 80 inlet;
#X obj 110 479 outlet~;
#X text 217 294 env;
#X obj 245 249 > 0;
#X obj 110 132 unpack f f;
#X msg 47 43 34 127;
#X msg 49 67 34 0;
#X obj 258 80 r dtun;
#X obj 303 81 r harm2;
#X obj 353 81 r wfold2;
#X connect 0 0 10 0;
#X connect 1 0 3 0;
#X connect 3 0 0 1;
#X connect 4 0 0 0;
#X connect 5 0 4 1;
#X connect 6 0 4 2;
#X connect 7 0 3 1;
#X connect 8 0 3 2;
#X connect 9 0 13 0;
#X connect 12 0 1 0;
#X connect 13 0 4 0;
#X connect 13 1 12 0;
#X connect 14 0 13 0;
#X connect 15 0 13 0;
#X connect 16 0 4 3;
#X connect 17 0 4 4;
#X connect 18 0 4 5;
