#N canvas 0 22 719 434 12;
#X obj 111 184 *~;
#X obj 140 237 *~;
#X obj 247 136 tgl 15 0 empty empty empty 17 7 0 10 -262144 -1 -1 1
1;
#X text 194 134 trigger;
#N canvas 0 22 1440 852 ramp 0;
#X floatatom 306 254 5 0 0 0 - - -;
#X msg 298 478 1 5;
#X obj 298 232 bng 15 250 50 0 empty empty empty 17 7 0 10 -262144
-1 -1;
#X text 319 235 noteon;
#X text 342 254 attack time;
#X msg 298 454 set 1 \$1;
#X floatatom 362 362 5 0 0 0 - - -;
#X msg 368 477 0 460.696;
#X obj 343 343 bng 15 250 50 0 empty empty empty 17 7 0 10 -262144
-1 -1;
#X text 372 346 noteoff;
#X text 410 361 decay time;
#X msg 368 453 set 0 \$1;
#X obj 324 320 spigot;
#X obj 285 112 tgl 15 0 empty empty empty 17 7 0 10 -262144 -1 -1 0
1;
#X text 239 112 cycle;
#X obj 327 423 spigot;
#X obj 366 507 line~;
#X obj 365 539 *~;
#X obj 365 563 *~;
#X text 395 186 ramp;
#X obj 305 47 vsl 25 80 0 1 0 0 empty empty empty 0 -9 0 10 -262144
-1 -1 0 1;
#X obj 305 165 * 1000;
#X obj 356 47 vsl 25 80 0 1 0 0 empty empty empty 0 -9 0 10 -262144
-1 -1 3600 1;
#X obj 356 165 * 1000;
#X text 309 24 rise/fall;
#X obj 302 292 delay 50;
#X obj 313 395 delay 50;
#X obj 356 189 + 5;
#X obj 305 189 + 5;
#X obj 443 147 / 127;
#X obj 443 171 *;
#X obj 392 49 vsl 25 80 0 1 0 0 empty empty empty 0 -9 0 10 -262144
-1 -1 0 1;
#X obj 422 126 bng 15 250 50 0 empty empty empty 17 7 0 10 -262144
-1 -1;
#X floatatom 458 197 5 0 0 0 - - -;
#X text 382 25 spread;
#X obj 307 2 inlet;
#X obj 348 2 inlet;
#X obj 391 2 inlet;
#X obj 264 1 inlet;
#X obj 248 69 tgl 15 0 empty empty empty 17 7 0 10 -262144 -1 -1 1
1;
#X text 228 91 trigger;
#X obj 365 597 outlet~;
#X obj 434 2 inlet;
#X text 474 3 note;
#X obj 220 1 inlet;
#X obj 243 144 sel 1;
#X obj 489 148 * 500;
#X connect 0 0 5 0;
#X connect 0 0 25 1;
#X connect 1 0 16 0;
#X connect 2 0 1 0;
#X connect 2 0 25 0;
#X connect 5 0 1 0;
#X connect 6 0 11 0;
#X connect 6 0 26 1;
#X connect 7 0 16 0;
#X connect 8 0 7 0;
#X connect 8 0 26 0;
#X connect 11 0 7 0;
#X connect 12 0 8 0;
#X connect 13 0 12 1;
#X connect 13 0 15 1;
#X connect 13 0 8 0;
#X connect 15 0 2 0;
#X connect 16 0 17 0;
#X connect 16 0 17 1;
#X connect 17 0 18 0;
#X connect 17 0 18 1;
#X connect 18 0 41 0;
#X connect 20 0 21 0;
#X connect 21 0 28 0;
#X connect 22 0 23 0;
#X connect 23 0 27 0;
#X connect 25 0 12 0;
#X connect 26 0 15 0;
#X connect 27 0 6 0;
#X connect 28 0 0 0;
#X connect 29 0 30 0;
#X connect 30 0 28 1;
#X connect 30 0 27 1;
#X connect 30 0 33 0;
#X connect 31 0 32 0;
#X connect 31 0 46 0;
#X connect 32 0 29 0;
#X connect 32 0 21 0;
#X connect 32 0 23 0;
#X connect 35 0 20 0;
#X connect 36 0 22 0;
#X connect 37 0 31 0;
#X connect 38 0 13 0;
#X connect 39 0 45 0;
#X connect 42 0 29 0;
#X connect 44 0 39 0;
#X connect 45 0 2 0;
#X connect 45 1 8 0;
#X connect 46 0 30 1;
#X restore 257 156 pd ramp;
#N canvas 0 22 832 569 oscillator 0;
#X obj 378 363 osc~ 5000;
#X floatatom 397 203 5 0 0 0 - - -;
#X obj 396 261 mtof;
#X floatatom 449 333 8 0 0 0 - - -;
#X floatatom 383 332 8 0 0 0 - - -;
#X obj 448 363 osc~ 5000;
#X obj 420 403 *~;
#X obj 435 262 t b f;
#X obj 404 289 expr $f1*($f2+1) \;;
#X floatatom 485 150 5 0 0 0 - - -;
#X text 436 202 note;
#X obj 420 429 cos~;
#X obj 452 460 *~;
#X obj 419 462 *~;
#X obj 470 414 * -1;
#X obj 470 438 + 1;
#X floatatom 533 381 5 0 1 0 - - -;
#X text 574 382 wavefold;
#X obj 536 -3 vsl 25 80 0 1 0 0 empty empty empty 0 -9 0 10 -262144
-1 -1 4200 1;
#X obj 486 -4 vsl 25 80 0 1 0 0 empty empty empty 0 -9 0 10 -262144
-1 -1 7400 1;
#X obj 486 126 i;
#X obj 485 100 * 16;
#X text 518 -23 wavefold;
#X text 449 -24 harmonics;
#X obj 428 166 > 0;
#X obj 361 127 unpack f f;
#X obj 249 -9 inlet;
#X msg 348 38 34 127;
#X msg 409 36 34 0;
#X obj 302 -7 inlet;
#X obj 356 -8 inlet;
#X obj 419 510 outlet~;
#X obj 614 500 outlet;
#X text 632 479 trigger out;
#X obj 514 495 outlet;
#X text 532 474 note out;
#X obj 419 488 hip~ 10;
#X connect 0 0 6 0;
#X connect 1 0 2 0;
#X connect 1 0 34 0;
#X connect 2 0 4 0;
#X connect 2 0 8 0;
#X connect 3 0 5 0;
#X connect 4 0 0 0;
#X connect 5 0 6 1;
#X connect 6 0 11 0;
#X connect 6 0 12 0;
#X connect 7 0 8 0;
#X connect 7 1 8 1;
#X connect 8 0 3 0;
#X connect 9 0 7 0;
#X connect 11 0 13 0;
#X connect 12 0 36 0;
#X connect 13 0 36 0;
#X connect 14 0 15 0;
#X connect 15 0 12 1;
#X connect 16 0 14 0;
#X connect 16 0 13 1;
#X connect 18 0 16 0;
#X connect 19 0 21 0;
#X connect 20 0 9 0;
#X connect 21 0 20 0;
#X connect 24 0 32 0;
#X connect 25 0 1 0;
#X connect 25 1 24 0;
#X connect 26 0 25 0;
#X connect 27 0 25 0;
#X connect 28 0 25 0;
#X connect 29 0 19 0;
#X connect 30 0 18 0;
#X connect 36 0 31 0;
#X restore 111 118 pd oscillator;
#X obj 394 131 tgl 15 0 empty empty empty 17 7 0 10 -262144 -1 -1 1
1;
#N canvas 0 22 1440 852 ramp 0;
#X floatatom 305 404 5 0 0 0 - - -;
#X msg 297 628 1 916.392;
#X obj 297 382 bng 15 250 50 0 empty empty empty 17 7 0 10 -262144
-1 -1;
#X text 318 385 noteon;
#X text 341 404 attack time;
#X msg 297 604 set 1 \$1;
#X floatatom 361 512 5 0 0 0 - - -;
#X msg 367 627 0 1006.28;
#X obj 342 493 bng 15 250 50 0 empty empty empty 17 7 0 10 -262144
-1 -1;
#X text 371 496 noteoff;
#X text 409 511 decay time;
#X msg 367 603 set 0 \$1;
#X obj 323 470 spigot;
#X obj 285 112 tgl 15 0 empty empty empty 17 7 0 10 -262144 -1 -1 1
1;
#X text 239 112 cycle;
#X obj 326 573 spigot;
#X obj 365 657 line~;
#X obj 364 689 *~;
#X obj 364 713 *~;
#X text 394 336 ramp;
#X obj 305 47 vsl 25 80 0 1 0 0 empty empty empty 0 -9 0 10 -262144
-1 -1 0 1;
#X obj 356 47 vsl 25 80 0 1 0 0 empty empty empty 0 -9 0 10 -262144
-1 -1 0 1;
#X text 309 24 rise/fall;
#X obj 301 442 delay 50;
#X obj 312 545 delay 50;
#X obj 355 339 + 5;
#X obj 442 297 / 127;
#X obj 442 321 *;
#X obj 392 49 vsl 25 80 0 1 0 0 empty empty empty 0 -9 0 10 -262144
-1 -1 0 1;
#X obj 421 276 bng 15 250 50 0 empty empty empty 17 7 0 10 -262144
-1 -1;
#X floatatom 457 347 5 0 0 0 - - -;
#X text 382 25 spread;
#X obj 307 2 inlet;
#X obj 348 2 inlet;
#X obj 391 2 inlet;
#X obj 264 1 inlet;
#X obj 248 69 tgl 15 0 empty empty empty 17 7 0 10 -262144 -1 -1 1
1;
#X text 228 91 trigger;
#X obj 364 747 outlet~;
#X obj 434 2 inlet;
#X text 438 24 note;
#X obj 220 1 inlet;
#X obj 242 294 sel 1;
#X obj 304 339 + 5;
#X obj 488 298 * 1000;
#X obj 499 270 *;
#X obj 502 200 > 0.05;
#X obj 534 269 sel 0;
#X obj 535 244 change;
#X msg 558 304 0;
#X obj 355 315 * 3000;
#X obj 304 315 * 3000;
#X connect 0 0 5 0;
#X connect 0 0 23 1;
#X connect 1 0 16 0;
#X connect 2 0 1 0;
#X connect 2 0 23 0;
#X connect 5 0 1 0;
#X connect 6 0 11 0;
#X connect 6 0 24 1;
#X connect 7 0 16 0;
#X connect 8 0 7 0;
#X connect 8 0 24 0;
#X connect 11 0 7 0;
#X connect 12 0 8 0;
#X connect 13 0 12 1;
#X connect 13 0 15 1;
#X connect 13 0 8 0;
#X connect 15 0 2 0;
#X connect 16 0 17 0;
#X connect 16 0 17 1;
#X connect 17 0 18 0;
#X connect 17 0 18 1;
#X connect 18 0 38 0;
#X connect 20 0 51 0;
#X connect 21 0 50 0;
#X connect 23 0 12 0;
#X connect 24 0 15 0;
#X connect 25 0 6 0;
#X connect 26 0 27 0;
#X connect 27 0 25 1;
#X connect 27 0 30 0;
#X connect 28 0 29 0;
#X connect 28 0 45 0;
#X connect 28 0 46 0;
#X connect 29 0 26 0;
#X connect 29 0 27 0;
#X connect 29 0 50 0;
#X connect 29 0 51 0;
#X connect 32 0 20 0;
#X connect 33 0 21 0;
#X connect 34 0 28 0;
#X connect 35 0 13 0;
#X connect 36 0 42 0;
#X connect 39 0 26 0;
#X connect 41 0 36 0;
#X connect 42 0 2 0;
#X connect 42 1 8 0;
#X connect 43 0 0 0;
#X connect 44 0 27 1;
#X connect 45 0 44 0;
#X connect 46 0 45 1;
#X connect 46 0 48 0;
#X connect 47 0 2 0;
#X connect 47 0 49 0;
#X connect 48 0 47 0;
#X connect 49 0 27 0;
#X connect 50 0 25 0;
#X connect 51 0 43 0;
#X restore 408 160 pd ramp;
#X text 341 129 cycle;
#X obj 345 104 loadbang;
#X obj 153 81 r harm;
#X obj 203 81 r wfold;
#X obj 262 81 r envr;
#X obj 311 81 r envf;
#X obj 361 81 r lfor;
#X obj 410 81 r lfof;
#X obj 458 81 r lfos;
#X obj 432 189 *~;
#X obj 499 168 * -1;
#X obj 499 192 + 1;
#X obj 108 236 *~;
#X obj 509 80 r lfod;
#X obj 108 80 inlet;
#X obj 357 178 sel 1;
#X msg 357 202 1;
#X obj 108 310 outlet~;
#X msg 526 134 0;
#X connect 0 0 1 0;
#X connect 0 0 20 0;
#X connect 1 0 25 0;
#X connect 2 0 4 0;
#X connect 2 0 23 0;
#X connect 4 0 0 1;
#X connect 5 0 0 0;
#X connect 5 1 7 5;
#X connect 5 2 2 0;
#X connect 6 0 7 1;
#X connect 7 0 17 0;
#X connect 9 0 6 0;
#X connect 9 0 26 0;
#X connect 10 0 5 1;
#X connect 11 0 5 2;
#X connect 12 0 4 2;
#X connect 13 0 4 3;
#X connect 14 0 7 2;
#X connect 15 0 7 3;
#X connect 16 0 7 4;
#X connect 17 0 1 1;
#X connect 18 0 19 0;
#X connect 19 0 20 1;
#X connect 20 0 25 0;
#X connect 21 0 18 0;
#X connect 21 0 17 1;
#X connect 22 0 5 0;
#X connect 23 0 24 0;
#X connect 24 0 7 0;
#X connect 26 0 18 0;
